<?xml version="1.0" standalone="no"?>
<!DOCTYPE svg PUBLIC "-//W3C//DTD SVG 20010904//EN"
 "http://www.w3.org/TR/2001/REC-SVG-20010904/DTD/svg10.dtd">
<svg version="1.0" xmlns="http://www.w3.org/2000/svg"
 width="440.000000pt" height="280.000000pt" viewBox="0 0 440.000000 280.000000"
 preserveAspectRatio="xMidYMid meet">

<g transform="translate(0.000000,280.000000) scale(0.100000,-0.100000)"
fill="#000000" stroke="none">
<path d="M930 1435 c0 -204 7 -244 45 -259 23 -9 175 -8 175 2 0 4 -9 18 -19
31 -13 17 -30 24 -62 26 -65 5 -69 16 -69 183 l0 144 103 -4 c87 -2 107 -6
134 -26 55 -39 78 -138 44 -191 -7 -11 -14 -9 -33 13 -18 22 -30 27 -56 24
l-32 -3 71 -102 c66 -97 72 -103 105 -103 19 0 34 3 34 8 0 4 -14 25 -30 46
-27 35 -28 41 -15 56 62 68 58 201 -8 277 -54 61 -92 73 -249 73 l-138 0 0
-195z"/>
<path d="M2078 1525 c-33 -18 -35 -26 -51 -170 l-12 -110 -95 -3 c-128 -4
-140 0 -140 43 l0 35 95 0 95 0 0 35 0 35 -96 0 -95 0 3 38 3 37 98 3 97 3 0
29 0 30 -109 0 c-94 0 -112 -3 -135 -21 -26 -20 -26 -22 -26 -145 l0 -124 -88
0 c-55 0 -92 4 -100 12 -8 8 -12 55 -12 145 l0 133 -35 0 -35 0 0 -135 c0 -83
5 -144 12 -160 19 -43 56 -55 163 -55 91 0 95 1 95 22 0 21 0 21 21 2 18 -17
40 -19 179 -22 l158 -3 8 73 9 73 79 3 c87 3 96 -2 96 -54 0 -17 3 -46 6 -63
l7 -32 167 3 c220 4 210 -5 210 174 0 131 0 133 -26 153 -24 19 -40 21 -145
21 l-118 0 6 -108 c7 -131 0 -182 -26 -182 -15 0 -20 11 -25 60 -3 33 -9 87
-12 121 -10 91 -31 111 -125 116 -54 2 -81 -1 -101 -12z m156 -67 c3 -7 7 -25
10 -40 l6 -28 -81 0 -81 0 7 33 c4 17 9 35 12 40 8 13 123 8 127 -5z m344 0
c8 -8 12 -46 12 -105 0 -109 -4 -113 -99 -113 l-61 0 0 115 0 115 68 0 c40 0
73 -5 80 -12z"/>
<path d="M2656 1518 c20 -36 39 -48 76 -48 l38 0 0 -145 0 -145 30 0 30 0 0
145 0 145 55 0 55 0 0 -123 c0 -162 -1 -161 156 -165 l114 -4 0 31 0 31 -89 0
c-100 0 -124 12 -119 59 l3 26 95 0 95 0 3 33 3 32 -100 0 c-95 0 -101 1 -101
21 0 11 5 29 10 40 10 17 22 19 120 19 l110 0 0 -145 0 -145 30 0 30 0 0 88 1
87 36 -40 c115 -128 124 -135 160 -135 l34 0 -23 29 c-13 16 -47 56 -75 88
l-53 60 60 82 c33 45 60 83 60 86 0 3 -17 5 -37 5 -36 0 -41 -4 -98 -85 l-60
-86 -3 86 -3 85 -150 0 c-145 0 -183 -6 -201 -34 -5 -6 -8 -1 -8 12 0 22 -1
22 -146 22 -113 0 -144 -3 -138 -12z"/>
<path d="M1050 1376 c0 -11 134 -198 145 -202 7 -3 25 -4 39 -2 26 3 25 4 -45
106 -66 96 -72 102 -105 102 -19 0 -34 -2 -34 -4z"/>
</g>
</svg>
