<svg width="432" height="137" viewBox="0 0 432 137" fill="none" xmlns="http://www.w3.org/2000/svg">
<path d="M40.7298 34.7501C40.1198 40.8501 39.1898 46.8201 37.9298 52.6501C36.6698 58.4801 34.8798 64.0401 32.5398 69.3301C30.1998 74.6101 27.1798 79.5701 23.4898 84.1701C19.7898 88.7801 15.1998 92.9101 9.70978 96.5801C9.22978 95.7701 8.61978 94.9201 7.87978 94.0401C7.12978 93.1601 6.33978 92.2901 5.48978 91.4501C4.63978 90.6001 3.77977 89.7901 2.89977 89.0101C2.01977 88.2301 1.13977 87.5701 0.259766 87.0301C5.13977 83.9101 9.21977 80.4201 12.5098 76.5501C15.7998 72.6901 18.4798 68.5201 20.5398 64.0401C22.5998 59.5601 24.1798 54.8701 25.2698 49.9501C26.3498 45.0401 27.1298 39.9701 27.6098 34.7501H3.09978V22.8501H28.2198C28.3498 19.3301 28.4198 15.7801 28.4198 12.2201V1.59009H42.0498C41.9798 5.11009 41.9098 8.66009 41.8498 12.2201C41.7798 15.7801 41.6798 19.3201 41.5398 22.8501H70.9298V77.6601C70.9298 79.9001 71.0998 81.3001 71.4398 81.8801C71.7798 82.4501 72.5598 82.7401 73.7798 82.7401H80.1898C80.7998 82.7401 81.2898 82.5001 81.6598 82.0301C82.0298 81.5601 82.3398 80.7101 82.5698 79.4901C82.8098 78.2701 82.9898 76.5601 83.1298 74.3601C83.2598 72.1601 83.3698 69.3301 83.4398 65.8701C84.8598 67.0201 86.6798 68.1101 88.8798 69.1301C91.0798 70.1401 93.0298 70.8601 94.7298 71.2701C94.4598 75.6101 94.0298 79.2501 93.4598 82.2001C92.8798 85.1501 92.0898 87.5201 91.0698 89.3101C90.0498 91.1001 88.7498 92.3901 87.1598 93.1801C85.5598 93.9601 83.5798 94.3501 81.2098 94.3501H71.5498C68.9098 94.3501 66.7198 94.0801 64.9898 93.5401C63.2598 93.0001 61.8998 92.0601 60.9198 90.7401C59.9398 89.4201 59.2398 87.6901 58.8398 85.5501C58.4398 83.4101 58.2298 80.7901 58.2298 77.6701V34.7601H40.7398L40.7298 34.7501Z" fill="#1A3E86"/>
<path d="M147.199 62.61C140.899 63.83 135.809 64.83 131.949 65.61C128.089 66.39 125.039 67.05 122.799 67.59C120.559 68.14 118.919 68.59 117.869 68.96C116.819 69.33 115.949 69.72 115.279 70.13C115.139 69.59 114.939 68.88 114.669 67.99C114.399 67.11 114.089 66.2 113.749 65.24C113.409 64.29 113.069 63.36 112.729 62.44C112.389 61.52 112.049 60.73 111.709 60.05C112.999 59.71 114.269 58.97 115.519 57.81C116.769 56.66 118.179 55.17 119.739 53.33C120.489 52.52 121.529 51.19 122.889 49.37C124.249 47.55 125.769 45.44 127.469 43.07C125.229 43.34 123.369 43.58 121.879 43.78C120.389 43.98 119.149 44.18 118.169 44.39C117.189 44.59 116.419 44.78 115.879 44.95C115.339 45.12 114.859 45.3 114.459 45.51C114.319 44.9 114.099 44.15 113.799 43.27C113.499 42.39 113.169 41.44 112.829 40.42C112.489 39.41 112.139 38.39 111.759 37.37C111.389 36.36 111.029 35.48 110.689 34.73C111.839 34.46 113.079 33.56 114.399 32.03C115.719 30.51 117.029 28.64 118.309 26.44C119.599 24.24 120.839 21.85 122.019 19.27C123.209 16.69 124.289 14.21 125.269 11.8C126.249 9.39997 127.099 7.20997 127.809 5.23997C128.519 3.27997 129.009 1.84997 129.289 0.969971L140.069 6.05997C138.169 10.81 135.919 15.57 133.309 20.35C130.699 25.13 127.969 29.55 125.119 33.62L133.759 33.01C134.909 31.05 135.999 29.08 137.009 27.11C138.029 25.15 139.009 23.18 139.959 21.21L149.419 27.01C146.709 31.96 143.739 36.84 140.519 41.65C137.299 46.46 133.929 51.01 130.399 55.28L147.589 52.53C147.319 54.09 147.169 55.85 147.129 57.82C147.099 59.78 147.109 61.38 147.179 62.6L147.199 62.61ZM150.039 82.24C146.919 83.05 143.789 83.89 140.629 84.73C137.479 85.58 134.359 86.41 131.269 87.22C128.189 88.03 125.199 88.83 122.319 89.61C119.439 90.39 116.709 91.12 114.129 91.8L111.889 80.31C114.189 79.9 116.789 79.38 119.669 78.73C122.549 78.09 125.579 77.41 128.769 76.7C131.959 75.99 135.259 75.24 138.689 74.46C142.109 73.68 145.519 72.92 148.909 72.17L150.029 82.24H150.039ZM166.209 89.76V96.37H154.819V44.1C153.529 45.8 152.139 47.49 150.649 49.18C150.379 48.43 150.039 47.55 149.629 46.54C149.219 45.53 148.779 44.49 148.309 43.44C147.839 42.39 147.339 41.37 146.839 40.39C146.329 39.41 145.869 38.58 145.469 37.9C147.369 35.6 149.209 32.95 151.009 29.97C152.799 26.99 154.469 23.9 155.989 20.72C157.509 17.53 158.869 14.3 160.059 11.01C161.249 7.72997 162.249 4.61997 163.059 1.70997L174.649 4.95997C173.839 7.33997 172.969 9.71997 172.059 12.13C171.149 14.54 170.109 16.96 168.959 19.4H181.969C181.289 17.44 180.399 15.23 179.279 12.79C178.159 10.35 176.989 8.10997 175.769 6.07997L186.039 1.80997C186.779 2.88997 187.509 4.05997 188.229 5.31997C188.939 6.57997 189.619 7.82997 190.259 9.07997C190.899 10.34 191.479 11.56 191.989 12.74C192.499 13.93 192.919 14.99 193.259 15.94L185.739 19.4H205.059V30.28H189.909V39.13H202.719V49.91H189.909V58.45H202.929V69.33H189.909V78.48H206.379V89.77H166.209V89.76ZM166.209 39.12H178.619V30.27H166.209V39.12ZM166.209 58.44H178.619V49.9H166.209V58.44ZM166.209 78.48H178.619V69.33H166.209V78.48Z" fill="#1A3E86"/>
<path d="M239.33 92.7099V96.3699H227.74V5.15991H314.58V96.3799H302.38V92.7199H239.33V92.7099ZM239.33 16.0399V50.1099C242.99 49.3599 246.68 48.4699 250.42 47.4199C254.15 46.3699 257.74 45.1699 261.2 43.8099C259.84 42.8599 258.57 41.8899 257.39 40.9099C256.2 39.9299 255.07 38.9299 253.98 37.9099C252.96 38.7899 251.93 39.6099 250.88 40.3499C249.83 41.0899 248.8 41.8099 247.78 42.4899C247.31 42.0199 246.73 41.4599 246.05 40.8099C245.37 40.1699 244.68 39.5099 243.96 38.8299C243.25 38.1499 242.52 37.5099 241.77 36.8999C241.02 36.2899 240.38 35.7799 239.84 35.3699C243.97 32.9999 247.96 30.1299 251.79 26.7799C255.62 23.4199 258.79 19.8499 261.3 16.0499H239.33V16.0399ZM239.33 82.0299H287.43C284.92 81.0799 282.04 80.1699 278.79 79.2799C275.54 78.3999 272.15 77.5699 268.62 76.7899C265.1 76.0099 261.52 75.3099 257.89 74.6999C254.26 74.0899 250.76 73.5799 247.36 73.1799L252.85 65.3499C256.31 65.6899 259.9 66.1599 263.63 66.7799C267.36 67.3899 271.05 68.0799 274.72 68.8599C278.38 69.6399 281.89 70.4699 285.25 71.3499C288.61 72.2299 291.57 73.1099 294.15 73.9899L289.17 82.0199H302.39V51.0999C301.37 52.2599 300.36 53.5599 299.34 55.0199C298.32 56.4799 297.54 57.7499 297 58.8299C288.05 56.9999 279.61 54.0199 271.68 49.8799C270.32 50.6299 268.97 51.2999 267.61 51.9099C266.25 52.5199 264.9 53.1299 263.54 53.7399C265.58 54.1499 267.66 54.6399 269.79 55.2199C271.93 55.7999 274.01 56.4099 276.04 57.0499C278.07 57.6999 280.02 58.3599 281.89 59.0299C283.75 59.7099 285.4 60.3499 286.82 60.9599L281.94 68.3799C280.45 67.6999 278.68 66.9699 276.65 66.1899C274.62 65.4099 272.48 64.6499 270.24 63.8999C268 63.1499 265.71 62.4599 263.38 61.8099C261.04 61.1699 258.79 60.6099 256.62 60.1399L260.38 54.9499C257.6 56.0299 254.82 56.9999 252.04 57.8499C249.26 58.6999 246.48 59.4599 243.7 60.1399C243.29 58.9899 242.68 57.6299 241.87 56.0699C241.06 54.5099 240.21 53.1199 239.33 51.8999V81.9999V82.0299ZM261.7 32.7099C263.05 33.8699 264.51 34.9799 266.07 36.0699C267.63 37.1499 269.32 38.1699 271.16 39.1199C273.13 38.1699 274.92 37.1499 276.55 36.0699C278.18 34.9899 279.74 33.8699 281.23 32.7099H261.71H261.7ZM281.84 43.9999C285.09 45.2199 288.45 46.2899 291.91 47.1999C295.37 48.1099 298.86 48.9099 302.38 49.5899V16.0399H262.82L271.46 19.0899C270.92 19.8399 270.37 20.6199 269.83 21.4299C269.29 22.2399 268.71 23.0199 268.1 23.7699H290.27L292 23.3599L298.81 27.4299C296.78 30.6199 294.3 33.5799 291.39 36.3299C288.47 39.0799 285.29 41.6399 281.83 44.0099L281.84 43.9999Z" fill="#1A3E86"/>
<path d="M383.83 71.3601C382.41 74.4101 380.559 77.2201 378.289 79.8001C376.019 82.3801 373.199 84.7501 369.849 86.9201C366.489 89.0901 362.479 91.0201 357.799 92.7101C353.119 94.4101 347.66 95.9001 341.43 97.1901C341.16 96.3801 340.78 95.4901 340.31 94.5501C339.84 93.6001 339.309 92.6501 338.729 91.7001C338.149 90.7501 337.54 89.8301 336.9 88.9501C336.25 88.0701 335.63 87.3201 335.02 86.7101C341.19 85.6301 346.44 84.3501 350.78 82.9001C355.12 81.4501 358.78 79.7801 361.76 77.9201C364.74 76.0601 367.149 73.9901 368.979 71.7201C370.809 69.4501 372.25 66.9801 373.299 64.3001C374.349 61.6201 375.11 58.7401 375.59 55.6601C376.07 52.5801 376.47 49.3001 376.81 45.8501H389.62C389.42 47.7501 389.21 49.5801 389.01 51.3401C388.81 53.1001 388.54 54.8701 388.2 56.6301C389.62 60.8401 391.52 64.5601 393.89 67.8201C396.26 71.0801 399.18 73.8701 402.64 76.2101C406.1 78.5501 410.149 80.4501 414.789 81.9101C419.429 83.3701 424.809 84.4001 430.909 85.0101C429.689 86.3701 428.399 88.1101 427.049 90.2501C425.689 92.3901 424.68 94.3301 424 96.1001C418.85 95.2901 414.22 94.1701 410.12 92.7401C406.02 91.3201 402.34 89.5901 399.09 87.5601C395.84 85.5301 392.97 83.1701 390.5 80.4901C388.02 77.8101 385.81 74.7801 383.84 71.3901L383.83 71.3601ZM362.479 53.6601C361.319 57.3901 359.84 61.1401 358.01 64.9001C356.18 68.6601 353.97 71.9001 351.4 74.6101L341.229 68.6101C343.669 66.2401 345.82 63.3601 347.69 59.9701C349.55 56.5801 351.03 53.1601 352.12 49.7001L362.49 53.6601H362.479ZM419.419 4.34009V43.8001H343.969V33.1201H407.83V28.3401H348.549V20.0001H407.83V15.1201H343.969V4.34009H419.419ZM422.27 55.2901C420.3 58.6801 418.269 62.0501 416.169 65.4101C414.069 68.7601 412.14 71.7001 410.37 74.2001L401.32 68.7101C402.2 67.4901 403.11 66.0701 404.07 64.4401C405.02 62.8101 405.969 61.1401 406.919 59.4001C407.869 57.6701 408.77 55.9401 409.62 54.2201C410.47 52.4901 411.2 50.8501 411.81 49.2901L422.28 55.2901H422.27Z" fill="#1A3E86"/>
<path d="M6.03 114.86L15.8 127.92V114.86H20.39V136.4H16.36L6.59 123.31V136.4H2V114.86H6.03Z" fill="#1A3E86"/>
<path d="M32.6003 136.4H27.5703V114.86H32.6003V136.4Z" fill="#1A3E86"/>
<path d="M43.8093 114.86L53.5793 127.92V114.86H58.1693V136.4H54.1393L44.3693 123.31V136.4H39.7793V114.86H43.8093Z" fill="#1A3E86"/>
<path d="M78.7896 127.72H70.3796V132.05H80.1196V136.4H65.3496V114.86H79.7596V119.18H70.3796V123.42H78.7896V127.71V127.72Z" fill="#1A3E86"/>
<path d="M105 114.86C107.1 114.86 109 115.28 110.71 116.13C112.42 116.97 113.77 118.2 114.76 119.82C115.75 121.44 116.25 123.37 116.25 125.6C116.25 127.83 115.75 129.77 114.76 131.4C113.77 133.03 112.43 134.27 110.73 135.12C109.03 135.98 107.13 136.4 105.01 136.4H97.2402V114.86H105.01H105ZM104.45 132.16C106.59 132.16 108.2 131.59 109.3 130.45C110.4 129.31 110.95 127.7 110.95 125.59C110.95 123.48 110.4 121.91 109.29 120.78C108.18 119.65 106.57 119.09 104.45 119.09H102.27V132.15H104.45V132.16Z" fill="#1A3E86"/>
<path d="M127.479 136.4H122.449V114.86H127.479V136.4Z" fill="#1A3E86"/>
<path d="M152.66 114.86H156.46V136.4H151.69V123.63L146.83 130.57H144.27L139.36 123.57V136.4H134.65V114.86H138.53L145.62 125.25L152.65 114.86H152.66Z" fill="#1A3E86"/>
<path d="M177.049 127.72H168.639V132.05H178.379V136.4H163.609V114.86H178.019V119.18H168.639V123.42H177.049V127.71V127.72Z" fill="#1A3E86"/>
<path d="M188.649 114.86L198.419 127.92V114.86H203.009V136.4H198.979L189.209 123.31V136.4H184.619V114.86H188.649Z" fill="#1A3E86"/>
<path d="M223.941 133.95C223.101 134.95 222.061 135.67 220.811 136.11C219.551 136.55 218.271 136.77 216.961 136.77C214.981 136.77 213.161 136.31 211.521 135.4C209.871 134.49 208.771 133.17 208.221 131.44L212.281 129.12C212.711 130.12 213.341 130.9 214.181 131.44C215.011 131.99 216.001 132.26 217.141 132.26C217.981 132.26 218.661 132.1 219.181 131.78C219.701 131.46 219.961 130.98 219.961 130.35C219.961 129.84 219.781 129.42 219.431 129.09C219.081 128.76 218.641 128.48 218.111 128.26C217.581 128.05 216.831 127.8 215.871 127.53C214.461 127.12 213.301 126.71 212.411 126.3C211.521 125.89 210.751 125.27 210.101 124.43C209.451 123.6 209.131 122.5 209.131 121.15C209.131 119.66 209.521 118.42 210.291 117.41C211.061 116.41 212.071 115.67 213.321 115.17C214.561 114.68 215.901 114.44 217.341 114.44C219.221 114.44 220.871 114.87 222.281 115.74C223.691 116.61 224.601 117.83 225.021 119.42L220.901 121.75C220.591 120.87 220.101 120.18 219.441 119.69C218.781 119.2 217.981 118.96 217.041 118.96C216.241 118.96 215.591 119.14 215.081 119.52C214.581 119.89 214.331 120.37 214.331 120.96C214.331 121.41 214.501 121.79 214.851 122.11C215.191 122.42 215.621 122.68 216.131 122.88C216.641 123.08 217.361 123.32 218.311 123.61C219.761 124.04 220.941 124.47 221.841 124.89C222.741 125.31 223.531 125.94 224.191 126.78C224.851 127.62 225.191 128.72 225.191 130.08C225.191 131.67 224.771 132.96 223.941 133.96V133.95Z" fill="#1A3E86"/>
<path d="M235.841 136.4H230.811V114.86H235.841V136.4Z" fill="#1A3E86"/>
<path d="M243.41 119.66C244.34 117.97 245.61 116.69 247.22 115.79C248.83 114.9 250.6 114.45 252.54 114.45C254.48 114.45 256.25 114.9 257.85 115.79C259.45 116.68 260.72 117.97 261.66 119.66C262.6 121.35 263.07 123.33 263.07 125.6C263.07 127.87 262.6 129.89 261.66 131.57C260.72 133.25 259.45 134.55 257.85 135.44C256.25 136.33 254.48 136.78 252.54 136.78C250.6 136.78 248.8 136.34 247.2 135.44C245.6 134.55 244.34 133.26 243.41 131.57C242.48 129.88 242.01 127.89 242.01 125.6C242.01 123.31 242.47 121.35 243.41 119.66ZM248 129.07C248.44 130.07 249.06 130.84 249.84 131.38C250.62 131.92 251.53 132.19 252.55 132.19C253.57 132.19 254.48 131.92 255.27 131.38C256.06 130.84 256.68 130.07 257.12 129.07C257.56 128.07 257.78 126.91 257.78 125.6C257.78 124.29 257.56 123.16 257.12 122.17C256.68 121.18 256.06 120.42 255.27 119.88C254.48 119.34 253.57 119.07 252.55 119.07C251.53 119.07 250.63 119.34 249.84 119.88C249.06 120.42 248.44 121.18 248 122.17C247.56 123.16 247.34 124.31 247.34 125.6C247.34 126.89 247.56 128.07 248 129.07Z" fill="#1A3E86"/>
<path d="M273.29 114.86L283.06 127.92V114.86H287.65V136.4H283.62L273.85 123.31V136.4H269.26V114.86H273.29Z" fill="#1A3E86"/>
<path d="M302.92 114.86H320.87V119.3H314.4V136.39H309.4V119.3H302.93V114.86H302.92Z" fill="#1A3E86"/>
<path d="M339.811 114.86H344.841V127.69C344.841 129.54 344.461 131.14 343.711 132.51C342.951 133.88 341.871 134.94 340.441 135.67C339.021 136.41 337.331 136.77 335.361 136.77C333.391 136.77 331.711 136.4 330.281 135.67C328.861 134.94 327.771 133.88 327.011 132.51C326.251 131.14 325.881 129.53 325.881 127.69V114.86H330.911V126.36C330.911 128.36 331.301 129.83 332.091 130.77C332.881 131.71 333.961 132.18 335.361 132.18C336.761 132.18 337.841 131.71 338.631 130.77C339.411 129.83 339.811 128.36 339.811 126.36V114.86Z" fill="#1A3E86"/>
<path d="M370.409 136.4L364.439 136.37L359.669 129.1H356.819V136.39H351.789V114.85H359.619C361.399 114.85 362.959 115.14 364.279 115.73C365.599 116.32 366.619 117.15 367.319 118.23C368.029 119.31 368.379 120.56 368.379 121.97C368.379 123.38 368.059 124.52 367.409 125.56C366.759 126.6 365.829 127.43 364.609 128.03L370.399 136.38L370.409 136.4ZM356.819 119.1V124.89H359.029C360.149 124.89 361.099 124.67 361.899 124.23C362.689 123.79 363.089 123.04 363.089 121.98C363.089 120.06 361.739 119.1 359.029 119.1H356.819Z" fill="#1A3E86"/>
<path d="M380.501 136.4H375.471V114.86H380.501V136.4Z" fill="#1A3E86"/>
<path d="M391.71 114.86L401.48 127.92V114.86H406.07V136.4H402.04L392.27 123.31V136.4H387.68V114.86H391.71Z" fill="#1A3E86"/>
<path d="M422.78 128.42V124.12H431.49V133.06C430.8 134.22 429.7 135.13 428.18 135.78C426.66 136.43 424.99 136.77 423.16 136.77C421.02 136.77 419.12 136.3 417.47 135.36C415.81 134.41 414.53 133.1 413.62 131.4C412.71 129.7 412.25 127.77 412.25 125.59C412.25 123.41 412.72 121.42 413.68 119.72C414.63 118.02 415.93 116.72 417.58 115.81C419.23 114.9 421.07 114.44 423.11 114.44C424.54 114.44 425.84 114.66 427.01 115.12C428.18 115.57 429.15 116.18 429.92 116.95C430.69 117.71 431.24 118.57 431.55 119.51L427.37 121.92C426.96 121 426.38 120.28 425.65 119.77C424.92 119.26 424.04 119 423.02 119C422 119 421.04 119.26 420.2 119.79C419.36 120.32 418.69 121.08 418.2 122.07C417.71 123.06 417.46 124.23 417.46 125.58C417.46 127.64 418 129.26 419.09 130.45C420.18 131.64 421.63 132.23 423.46 132.23C424.83 132.23 425.88 131.87 426.61 131.14V128.41H422.78V128.42Z" fill="#1A3E86"/>
</svg>
