<svg width="618" height="177" viewBox="0 0 618 177" fill="none" xmlns="http://www.w3.org/2000/svg">
<g clip-path="url(#clip0_1312_230)">
<mask id="mask0_1312_230" style="mask-type:luminance" maskUnits="userSpaceOnUse" x="0" y="0" width="178" height="177">
<path d="M83.8785 136.613C83.5835 136.598 83.2885 136.59 82.9934 136.59C71.8883 136.59 62.8862 145.554 62.8862 156.614C62.8862 165.911 69.2558 173.733 77.8872 175.988C77.8872 175.988 79.8162 176.381 83.8785 176.51C85.4823 176.562 87.0936 176.638 88.72 176.638C137.717 176.638 177.44 137.097 177.44 88.3191C177.44 39.5412 137.717 0 88.72 0C39.7228 0 0 39.5412 0 88.3191C0 89.7639 0.0378235 91.2013 0.105907 92.631L0.196681 93.9851C0.317718 95.8082 0.597619 97.6238 1.18767 99.3486C3.9337 107.375 11.4682 113.139 20.3266 113.139C31.515 113.139 40.5776 103.963 40.5776 92.6386C40.4717 91.345 40.5776 90.0363 40.5776 88.72C40.5776 62.1373 62.1297 40.5852 88.7124 40.5852C115.295 40.5852 136.847 62.1373 136.847 88.72C136.847 115.303 115.295 136.855 88.7124 136.855C87.0104 136.855 85.331 136.764 83.6818 136.598" fill="white"/>
</mask>
<g mask="url(#mask0_1312_230)">
<path d="M0.0078125 102.004L74.6422 176.638H0.0078125V102.004Z" fill="#1A3E86"/>
<path d="M0.0078125 99.8933L76.7527 176.638H74.6422L0.0078125 102.004V99.8933Z" fill="#1A3E86"/>
<path d="M0.0078125 97.7903L78.8557 176.638H76.7527L0.0078125 99.8933V97.7903Z" fill="#183F86"/>
<path d="M0.0078125 95.6797L80.9663 176.638H78.8557L0.0078125 97.7903V95.6797Z" fill="#194087"/>
<path d="M0.0078125 93.5767L83.0693 176.638H80.9663L0.0078125 95.6797V93.5767Z" fill="#1A4187"/>
<path d="M0.0078125 91.4661L85.1799 176.638H83.0693L0.0078125 93.5766V91.4661Z" fill="#1C4187"/>
<path d="M0.0078125 89.3555L87.2829 176.638H85.1799L0.0078125 91.466V89.3555Z" fill="#1A4388"/>
<path d="M0.0078125 87.2524L89.3935 176.638H87.2829L0.0078125 89.3555V87.2524Z" fill="#1B4488"/>
<path d="M0.0078125 85.1418L91.4965 176.638H89.3935L0.0078125 87.2524V85.1418Z" fill="#1A4488"/>
<path d="M0.0078125 83.0388L93.6071 176.638H91.4965L0.0078125 85.1418V83.0388Z" fill="#1B4589"/>
<path d="M0.0078125 80.9282L95.7177 176.638H93.6071L0.0078125 83.0388V80.9282Z" fill="#1C478A"/>
<path d="M0.0078125 78.8252L97.8207 176.638H95.7177L0.0078125 80.9282V78.8252Z" fill="#1E4789"/>
<path d="M0.0078125 76.7146L99.9313 176.638H97.8207L0.0078125 78.8252V76.7146Z" fill="#1F4889"/>
<path d="M0.0078125 74.6042L102.034 176.638H99.9313L0.0078125 76.7148V74.6042Z" fill="#1D498A"/>
<path d="M0.0078125 72.5012L104.145 176.638H102.034L0.0078125 74.6042V72.5012Z" fill="#1F4A8A"/>
<path d="M0.0078125 70.3906L106.248 176.638H104.145L0.0078125 72.5012V70.3906Z" fill="#224B8B"/>
<path d="M0.0078125 68.2876L108.358 176.638H106.248L0.0078125 70.3906V68.2876Z" fill="#214C8B"/>
<path d="M0.0078125 66.1768L110.462 176.638H108.358L0.0078125 68.2873V66.1768Z" fill="#224D8B"/>
<path d="M0.0078125 64.0737L112.572 176.638H110.461L0.0078125 66.1768V64.0737Z" fill="#214E8C"/>
<path d="M0.0078125 61.9631L114.683 176.638H112.572L0.0078125 64.0737V61.9631Z" fill="#1F4F8D"/>
<path d="M0.0078125 59.8601L116.786 176.638H114.683L0.0078125 61.9631V59.8601Z" fill="#21508D"/>
<path d="M0.0078125 57.7498L118.896 176.638H116.786L0.0078125 59.8603V57.7498Z" fill="#21518E"/>
<path d="M0.0078125 55.6392L120.999 176.638H118.896L0.0078125 57.7497V55.6392Z" fill="#20528D"/>
<path d="M0.0078125 53.5361L123.11 176.638H120.999L0.0078125 55.6392V53.5361Z" fill="#22538E"/>
<path d="M0.0078125 51.4255L125.213 176.638H123.11L0.0078125 53.5361V51.4255Z" fill="#22548E"/>
<path d="M0.0078125 49.3225L127.323 176.638H125.213L0.0078125 51.4255V49.3225Z" fill="#21558F"/>
<path d="M0.0078125 47.2119L129.434 176.638H127.323L0.0078125 49.3225V47.2119Z" fill="#225690"/>
<path d="M0.0078125 45.1089L131.537 176.638H129.434L0.0078125 47.2119V45.1089Z" fill="#215790"/>
<path d="M0.0078125 42.9983L133.648 176.638H131.537L0.0078125 45.1089V42.9983Z" fill="#225790"/>
<path d="M0.0078125 40.8953L135.751 176.638H133.648L0.0078125 42.9983V40.8953Z" fill="#215991"/>
<path d="M0.0078125 38.7847L137.861 176.638H135.751L0.0078125 40.8952V38.7847Z" fill="#225A91"/>
<path d="M0.0078125 37.4005L0.370926 37.0374L139.964 176.638H137.861L0.0078125 38.7848V37.4005Z" fill="#245A91"/>
<path d="M0.371094 37.0373L1.4226 35.9858L141.054 175.617L140.04 176.638H139.964L0.371094 37.0373Z" fill="#255C92"/>
<path d="M2.4737 34.9365L1.41992 35.9902L141.053 175.624L142.107 174.57L2.4737 34.9365Z" fill="#245C92"/>
<path d="M3.53425 33.8774L2.48047 34.9312L142.114 174.565L143.168 173.511L3.53425 33.8774Z" fill="#225D93"/>
<path d="M4.58307 32.8217L3.5293 33.8755L143.163 173.509L144.217 172.455L4.58307 32.8217Z" fill="#235E94"/>
<path d="M5.6358 31.7734L4.58203 32.8271L144.216 172.461L145.269 171.407L5.6358 31.7734Z" fill="#255F94"/>
<path d="M6.68854 30.7197L5.63477 31.7734L145.268 171.407L146.322 170.353L6.68854 30.7197Z" fill="#246094"/>
<path d="M7.74714 29.6584L6.69336 30.7122L146.327 170.346L147.381 169.292L7.74714 29.6584Z" fill="#256194"/>
<path d="M8.79792 28.6103L7.74414 29.6641L147.378 169.298L148.431 168.244L8.79792 28.6103Z" fill="#266295"/>
<path d="M9.85065 27.5619L8.79688 28.6157L148.43 168.249L149.484 167.195L9.85065 27.5619Z" fill="#256396"/>
<path d="M10.9092 26.5029L9.85547 27.5566L149.489 167.19L150.543 166.136L10.9092 26.5029Z" fill="#276496"/>
<path d="M11.96 25.447L10.9062 26.5007L150.54 166.134L151.594 165.08L11.96 25.447Z" fill="#286596"/>
<path d="M13.0108 24.3989L11.957 25.4526L151.591 165.086L152.644 164.032L13.0108 24.3989Z" fill="#276696"/>
<path d="M14.0577 23.3452L13.0039 24.3989L152.637 164.032L153.691 162.979L14.0577 23.3452Z" fill="#256797"/>
<path d="M15.1221 22.2839L14.0684 23.3376L153.702 162.971L154.756 161.917L15.1221 22.2839Z" fill="#276797"/>
<path d="M16.1729 21.2355L15.1191 22.2893L154.753 161.923L155.806 160.869L16.1729 21.2355Z" fill="#286997"/>
<path d="M17.2257 20.1874L16.1719 21.2412L155.805 160.875L156.859 159.821L17.2257 20.1874Z" fill="#296A97"/>
<path d="M18.2784 19.1262L17.2246 20.1799L156.858 159.813L157.912 158.76L18.2784 19.1262Z" fill="#286B98"/>
<path d="M19.335 18.0724L18.2812 19.1262L157.915 158.76L158.969 157.706L19.335 18.0724Z" fill="#296C98"/>
<path d="M20.3878 17.0241L19.334 18.0779L158.967 157.711L160.021 156.658L20.3878 17.0241Z" fill="#286C99"/>
<path d="M21.4327 15.9631L20.3789 17.0168L160.012 156.65L161.066 155.597L21.4327 15.9631Z" fill="#296E99"/>
<path d="M22.4991 14.9094L21.4453 15.9631L161.079 155.597L162.133 154.543L22.4991 14.9094Z" fill="#296E99"/>
<path d="M23.5499 13.861L22.4961 14.9148L162.13 154.548L163.183 153.495L23.5499 13.861Z" fill="#2A6F9A"/>
<path d="M24.6007 12.8051L23.5469 13.8589L163.18 153.492L164.234 152.439L24.6007 12.8051Z" fill="#2B709A"/>
<path d="M25.6553 11.7516L24.6016 12.8054L164.235 152.439L165.289 151.385L25.6553 11.7516Z" fill="#2C729B"/>
<path d="M26.71 10.6979L25.6562 11.7517L165.29 151.385L166.344 150.331L26.71 10.6979Z" fill="#2A739B"/>
<path d="M27.7628 9.64936L26.709 10.7031L166.342 150.337L167.396 149.283L27.7628 9.64936Z" fill="#2B749D"/>
<path d="M28.8155 8.59369L27.7617 9.64746L167.395 149.281L168.449 148.227L28.8155 8.59369Z" fill="#2B759C"/>
<path d="M29.8741 7.5346L28.8203 8.58838L168.454 148.222L169.508 147.168L29.8741 7.5346Z" fill="#29769D"/>
<path d="M30.9249 6.48626L29.8711 7.54004L169.505 147.174L170.558 146.12L30.9249 6.48626Z" fill="#2A779E"/>
<path d="M31.9776 5.43035L30.9238 6.48413L170.557 146.118L171.611 145.064L31.9776 5.43035Z" fill="#2C789D"/>
<path d="M33.0303 4.37689L31.9766 5.43066L171.61 145.064L172.664 144.01L33.0303 4.37689Z" fill="#2B799E"/>
<path d="M34.087 3.32318L33.0332 4.37695L172.667 144.01L173.72 142.957L34.087 3.32318Z" fill="#2C7A9E"/>
<path d="M35.1378 2.26728L34.084 3.32104L173.717 142.955L174.771 141.901L35.1378 2.26728Z" fill="#2E7B9E"/>
<path d="M36.1905 1.21894L35.1367 2.27271L174.77 141.906L175.824 140.852L36.1905 1.21894Z" fill="#2C7C9F"/>
<path d="M37.2491 0.160089L36.1953 1.21387L175.829 140.847L176.883 139.794L37.2491 0.160089Z" fill="#2B7D9F"/>
<path d="M37.2422 0.158861L37.4086 0H39.1939L177.441 138.247V139.238L176.881 139.798L37.2422 0.158861Z" fill="#2D7EA0"/>
<path d="M41.2964 0L177.44 136.144V138.247L39.1934 0H41.2964Z" fill="#2C7EA0"/>
<path d="M43.4074 0L177.441 134.033V136.144L41.2969 0H43.4074Z" fill="#2D7FA1"/>
<path d="M45.5093 0L177.439 131.93V134.033L43.4062 0H45.5093Z" fill="#2E81A1"/>
<path d="M47.6204 0L177.44 129.82V131.93L45.5098 0H47.6204Z" fill="#2D82A1"/>
<path d="M49.7241 0L177.441 127.717V129.82L47.6211 0H49.7241Z" fill="#2F83A2"/>
<path d="M51.8352 0L177.441 125.606V127.717L49.7246 0H51.8352Z" fill="#2E84A2"/>
<path d="M53.937 0L177.44 123.495V125.606L51.834 0H53.937Z" fill="#2D84A2"/>
<path d="M56.0481 0L177.44 121.392V123.495L53.9375 0H56.0481Z" fill="#2E85A3"/>
<path d="M58.1594 0L177.441 119.282V121.392L56.0488 0H58.1594Z" fill="#2E86A3"/>
<path d="M60.2612 0L177.44 117.179V119.282L58.1582 0H60.2612Z" fill="#2C87A4"/>
<path d="M62.3723 0L177.441 115.068V117.179L60.2617 0H62.3723Z" fill="#2E88A4"/>
<path d="M64.4741 0L177.439 112.965V115.068L62.3711 0H64.4741Z" fill="#3089A4"/>
<path d="M66.5871 0L177.442 110.855V112.965L64.4766 0H66.5871Z" fill="#2E8AA5"/>
<path d="M68.689 0L177.441 108.752V110.855L66.5859 0H68.689Z" fill="#308BA5"/>
<path d="M70.7981 0L177.439 106.641V108.752L68.6875 0H70.7981Z" fill="#2F8CA6"/>
<path d="M72.9094 0L177.44 104.53V106.641L70.7988 0H72.9094Z" fill="#308DA6"/>
<path d="M75.0112 0L177.439 102.427V104.53L72.9082 0H75.0112Z" fill="#2F8EA6"/>
<path d="M77.1243 0L177.441 100.317V102.427L75.0137 0H77.1243Z" fill="#2F8EA7"/>
<path d="M79.2261 0L177.44 98.2138V100.317L77.123 0H79.2261Z" fill="#308FA7"/>
<path d="M81.3371 0L177.44 96.1032V98.2138L79.2266 0H81.3371Z" fill="#2F90A7"/>
<path d="M83.439 0L177.439 94.0002V96.1032L81.3359 0H83.439Z" fill="#2E91A7"/>
<path d="M85.55 0L177.44 91.8897V94.0002L83.4395 0H85.55Z" fill="#3092A7"/>
<path d="M87.6538 0L177.44 89.7866V91.8897L85.5508 0H87.6538Z" fill="#3293A8"/>
<path d="M89.7629 0L177.439 87.6761V89.7866L87.6523 0H89.7629Z" fill="#3194A8"/>
<path d="M91.8743 0L177.44 85.5655V87.6761L89.7637 0H91.8743Z" fill="#2F95A9"/>
<path d="M93.978 0L177.44 83.4625V85.5655L91.875 0H93.978Z" fill="#3196A9"/>
<path d="M96.0891 0L177.441 81.3519V83.4625L93.9785 0H96.0891Z" fill="#3097A9"/>
<path d="M98.1909 0L177.44 79.2489V81.3519L96.0879 0H98.1909Z" fill="#3298AA"/>
<path d="M100.302 0L177.44 77.1383V79.2489L98.1914 0H100.302Z" fill="#3199AA"/>
<path d="M102.406 0L177.441 75.0353V77.1383L100.303 0H102.406Z" fill="#3399AB"/>
<path d="M104.515 0L177.44 72.9247V75.0353L102.404 0H104.515Z" fill="#349BAB"/>
<path d="M106.619 0L177.44 70.8141V72.9247L104.516 0H106.619Z" fill="#339CAB"/>
<path d="M108.73 0L177.441 68.7111V70.8141L106.619 0H108.73Z" fill="#359CAC"/>
<path d="M110.841 0L177.442 66.6005V68.7111L108.73 0H110.841Z" fill="#349DAC"/>
<path d="M112.943 0L177.44 64.4975V66.6005L110.84 0H112.943Z" fill="#359FAD"/>
<path d="M115.053 0L177.44 62.3869V64.4975L112.942 0H115.053Z" fill="#34A0AD"/>
<path d="M117.157 0L177.441 60.2839V62.3869L115.054 0H117.157Z" fill="#33A0AD"/>
<path d="M119.267 0L177.44 58.1733V60.2839L117.156 0H119.267Z" fill="#32A1AE"/>
<path d="M121.371 0L177.441 56.0703V58.1733L119.268 0H121.371Z" fill="#33A2AE"/>
<path d="M123.481 0L177.44 53.9597V56.0703L121.37 0H123.481Z" fill="#35A3AF"/>
<path d="M125.592 0L177.441 51.8492V53.9597L123.481 0H125.592Z" fill="#35A4AF"/>
<path d="M177.44 51.8492L125.591 0H177.44V51.8492Z" fill="#35A4AF"/>
</g>
<path d="M19.8822 140.301C18.3017 138.72 15.7392 138.72 14.1587 140.301C12.5781 141.881 12.5781 144.444 14.1587 146.024L30.7623 162.628C32.3429 164.209 34.9054 164.209 36.4859 162.628C38.0664 161.048 38.0664 158.485 36.4859 156.904L19.8822 140.301Z" fill="#1A3E86"/>
<path d="M16.0678 151.102C14.4872 149.522 11.9247 149.522 10.3442 151.102C8.76368 152.683 8.76369 155.245 10.3442 156.826L19.9619 166.444C21.5424 168.024 24.105 168.024 25.6855 166.444C27.266 164.863 27.266 162.301 25.6855 160.72L16.0678 151.102Z" fill="#1A3E86"/>
<path d="M97.5939 101.663C94.4546 99.3711 90.3242 98.5692 86.6023 99.7039C79.2569 101.943 72.6755 108.131 70.8145 110.196C70.5422 110.499 70.1035 110.544 69.7782 110.31C68.8477 109.636 67.0473 108.214 66.1849 106.769C65.9504 106.376 66.1092 105.922 66.4345 105.604C72.214 99.9687 77.5245 92.9485 77.8422 87.6607C78.1675 82.3351 74.6272 74.5509 66.0412 74.15C57.4551 73.7491 52.2278 80.8297 51.5243 90.3236C50.8208 99.8174 55.0041 105.294 55.0041 105.294L27.4153 132.815L23.8069 129.207C22.2258 127.626 19.6614 127.626 18.0803 129.207C16.4993 130.788 16.4993 133.352 18.0803 134.933L41.8641 158.717C43.4451 160.298 46.0096 160.298 47.5906 158.717C49.1716 157.136 49.1716 154.571 47.5906 152.99L44.2016 149.601L71.1701 121.619C71.1701 121.619 73.9691 123.586 79.3098 124.781C83.1225 125.636 87.1091 125.681 90.884 124.69C100.416 122.202 102.443 115.34 102.609 111.013C102.738 107.685 100.915 104.076 97.6015 101.656L97.5939 101.663ZM65.4662 82.5923C66.1244 82.5923 66.7598 82.7966 67.3423 83.1748C69.2411 84.3927 69.9748 86.8437 69.3016 88.9997C68.8704 90.3765 67.9853 92.1315 66.1924 94.106C61.8956 98.8491 61.5401 99.0836 61.5401 99.0836C60.5642 97.3361 59.9591 94.9381 59.9591 92.2904C59.9591 86.9345 62.4176 82.5999 65.4587 82.5999L65.4662 82.5923ZM64.0214 117.156L37.9152 143.307L33.331 138.723C38.8684 133.239 56.3431 115.938 59.4749 112.783C59.717 112.541 60.1179 112.564 60.3449 112.821C61.9335 114.622 63.2497 115.703 63.9608 116.241C64.2559 116.46 64.2861 116.891 64.0214 117.156ZM84.5522 117.08C81.9045 117.08 79.5065 116.475 77.759 115.499C77.759 115.499 77.986 115.144 82.7367 110.847C84.7187 109.054 86.4737 108.169 87.8429 107.738C89.9989 107.064 92.4499 107.798 93.6678 109.697C94.0461 110.287 94.2503 110.915 94.2503 111.573C94.2503 114.614 89.9081 117.073 84.5598 117.073L84.5522 117.08Z" fill="#1A3E86"/>
<path d="M249.46 51.8891C253.74 54.1191 257.13 57.2791 259.64 61.3891C262.15 65.4991 263.4 70.2291 263.4 75.5891C263.4 79.6991 262.65 83.5791 261.16 87.2291C259.66 90.8791 256.9 95.8391 252.86 102.109L237.31 126.429H218.19L232.7 104.609C233.74 103.009 235.17 100.989 236.98 98.5591C235.24 98.9091 233.6 99.0791 232.07 99.0791C227.2 99.0791 222.9 98.0691 219.18 96.0491C215.46 94.0291 212.57 91.1791 210.52 87.4891C208.47 83.7991 207.44 79.4891 207.44 74.5491C207.44 69.6091 208.71 65.0491 211.25 61.0791C213.79 57.1091 217.2 54.0291 221.48 51.8391C225.76 49.6491 230.41 48.5491 235.42 48.5491C240.43 48.5491 245.18 49.6591 249.46 51.8891ZM242.31 81.5791C244.05 79.7391 244.92 77.3491 244.92 74.4291C244.92 71.5091 244.05 69.1091 242.31 67.2291C240.57 65.3491 238.34 64.4091 235.63 64.4091C232.92 64.4091 230.58 65.3491 228.84 67.2291C227.1 69.1091 226.23 71.5491 226.23 74.5391C226.23 77.5291 227.1 79.8291 228.84 81.6391C230.58 83.4491 232.84 84.3491 235.63 84.3491C238.42 84.3491 240.57 83.4291 242.31 81.5791Z" fill="#1A3E86"/>
<path d="M300.34 50.1091C307.79 50.1091 314.54 51.6091 320.59 54.5991C326.64 57.5891 331.43 61.9591 334.94 67.6991C338.45 73.4391 340.21 80.2791 340.21 88.2091C340.21 96.1391 338.45 102.999 334.94 108.769C331.43 114.549 326.66 118.949 320.64 121.969C314.62 124.999 307.85 126.509 300.34 126.509H272.78V50.0991H300.34V50.1091ZM298.36 111.489C305.94 111.489 311.69 109.469 315.58 105.439C319.48 101.399 321.43 95.6591 321.43 88.2191C321.43 80.7791 319.46 75.1591 315.53 71.1491C311.6 67.1491 305.87 65.1491 298.36 65.1491H290.64V111.499H298.36V111.489Z" fill="#1A3E86"/>
<path d="M344.341 125.109C342.421 123.129 341.471 120.739 341.471 117.959C341.471 115.179 342.431 112.789 344.341 110.809C346.251 108.829 348.571 107.829 351.281 107.829C353.991 107.829 356.431 108.819 358.381 110.809C360.331 112.789 361.301 115.179 361.301 117.959C361.301 120.739 360.321 123.129 358.381 125.109C356.431 127.089 354.061 128.089 351.281 128.089C348.501 128.089 346.251 127.099 344.341 125.109Z" fill="#1A3E86"/>
<path d="M350.87 50.1091H414.55V65.8691H391.59V126.519H373.84V65.8691H350.87V50.1091Z" fill="#1A3E86"/>
<path d="M467.881 95.7291H438.031V111.069H472.581V126.519H420.181V50.1091H471.331V65.4491H438.031V80.4791H467.881V95.7191V95.7291Z" fill="#1A3E86"/>
<path d="M529.16 100.639L544.09 109.409C542.98 112.749 541.06 115.829 538.35 118.649C535.64 121.469 532.24 123.709 528.17 125.379C524.1 127.049 519.56 127.889 514.55 127.889C507.66 127.889 501.36 126.259 495.66 122.979C489.95 119.709 485.43 115.059 482.09 109.039C478.75 103.019 477.08 96.0792 477.08 88.2092C477.08 80.3392 478.75 73.4192 482.09 67.4392C485.43 61.4592 489.95 56.8292 495.66 53.5592C501.37 50.2892 507.66 48.6492 514.55 48.6492C519.56 48.6492 524.1 49.4792 528.17 51.1492C532.24 52.8192 535.63 55.0592 538.35 57.8792C541.06 60.6992 542.98 63.7792 544.09 67.1192L529.16 75.8892C526.03 68.6492 521.02 65.0292 514.13 65.0292C510.72 65.0292 507.64 65.9492 504.89 67.7992C502.14 69.6392 499.95 72.3192 498.31 75.8392C496.67 79.3592 495.86 83.4792 495.86 88.2092C495.86 92.9392 496.68 97.0792 498.31 100.629C499.94 104.179 502.14 106.879 504.89 108.719C507.64 110.559 510.72 111.489 514.13 111.489C521.02 111.489 526.03 107.869 529.16 100.629V100.639Z" fill="#1A3E86"/>
<path d="M568.411 79.0291H599.931V50.1091H617.781V126.519H599.931V94.7891H568.411V126.519H550.561V50.1091H568.411V79.0291Z" fill="#1A3E86"/>
</g>
<defs>
<clipPath id="clip0_1312_230">
<rect width="617.78" height="176.638" fill="white"/>
</clipPath>
</defs>
</svg>
