<?xml version="1.0" standalone="no"?>
<!DOCTYPE svg PUBLIC "-//W3C//DTD SVG 20010904//EN"
 "http://www.w3.org/TR/2001/REC-SVG-20010904/DTD/svg10.dtd">
<svg version="1.0" xmlns="http://www.w3.org/2000/svg"
 width="440.000000pt" height="280.000000pt" viewBox="0 0 440.000000 280.000000"
 preserveAspectRatio="xMidYMid meet">

<g transform="translate(0.000000,280.000000) scale(0.100000,-0.100000)"
fill="#000000" stroke="none">
<path d="M2100 2090 l0 -30 -68 0 c-96 0 -102 -8 -102 -138 l0 -102 85 0 85 0
0 -51 0 -50 33 3 c32 3 32 4 30 51 l-3 47 70 0 c101 0 110 11 110 140 l0 99
-87 3 -88 3 3 28 c3 25 0 27 -33 27 -32 0 -35 -2 -35 -30z m0 -150 l0 -80 -55
0 -55 0 0 73 c0 41 3 77 7 80 3 4 28 7 55 7 l48 0 0 -80z m170 0 l0 -80 -49 0
c-56 0 -56 1 -60 98 l-2 62 55 0 56 0 0 -80z"/>
<path d="M2458 2113 c-42 -3 -58 -8 -58 -18 0 -10 10 -15 30 -15 28 0 30 -2
30 -40 0 -38 -2 -40 -30 -40 -20 0 -30 -5 -30 -15 0 -10 10 -15 31 -15 l31 0
-41 -75 -42 -75 30 0 c18 0 34 7 40 18 8 13 10 0 11 -50 l0 -68 30 0 30 0 0
86 0 86 36 -6 c33 -7 35 -5 32 16 -2 15 -13 25 -35 32 -45 12 -43 36 2 36 24
0 35 5 35 15 0 10 -11 15 -35 15 -35 0 -35 0 -35 45 0 45 0 45 35 45 24 0 35
5 35 15 0 16 -3 16 -132 8z"/>
<path d="M2750 1985 l0 -135 -70 0 c-56 0 -70 -3 -70 -15 0 -12 14 -15 70 -15
l70 0 0 -50 c0 -49 1 -50 30 -50 29 0 30 1 30 50 0 38 4 50 15 50 8 0 15 7 15
15 0 8 -7 15 -15 15 -13 0 -15 22 -15 135 l0 135 -30 0 -30 0 0 -135z"/>
<path d="M3031 2070 l-1 -50 60 0 c76 0 79 -18 3 -22 -81 -4 -85 -28 -4 -28
48 0 61 -3 61 -15 0 -12 -13 -15 -60 -15 -45 0 -60 -3 -60 -14 0 -9 12 -16 31
-18 l32 -3 -39 -28 -39 -27 -3 120 -3 120 -59 0 -60 0 0 -159 c0 -178 -3 -171
76 -171 37 0 44 3 44 20 0 10 9 24 20 30 19 10 20 8 20 -40 l0 -50 113 0 c145
0 154 6 159 95 l3 65 -94 0 c-82 0 -92 2 -81 15 9 11 33 15 91 15 64 0 79 3
79 15 0 8 -8 15 -17 15 -16 1 -16 2 -2 13 9 7 18 24 21 39 4 24 3 26 -13 18
-24 -13 -112 -13 -104 0 3 6 25 10 48 10 56 0 64 7 69 58 l4 42 -147 0 -146 0
-2 -50z m89 0 c0 -11 -7 -20 -15 -20 -8 0 -15 9 -15 20 0 11 7 20 15 20 8 0
15 -9 15 -20z m80 0 c0 -13 -7 -20 -20 -20 -13 0 -20 7 -20 20 0 13 7 20 20
20 13 0 20 -7 20 -20z m70 0 c0 -11 -7 -20 -15 -20 -8 0 -15 9 -15 20 0 11 7
20 15 20 8 0 15 -9 15 -20z m-310 -70 c0 -33 -4 -60 -10 -60 -6 0 -10 27 -10
60 0 33 4 60 10 60 6 0 10 -27 10 -60z m267 -47 c-9 -9 -19 -14 -23 -11 -10
10 6 28 24 28 15 0 15 -1 -1 -17z m-267 -103 c0 -33 -4 -60 -10 -60 -6 0 -10
27 -10 60 0 33 4 60 10 60 6 0 10 -27 10 -60z m310 -15 c0 -12 -16 -15 -85
-15 -69 0 -85 3 -85 15 0 12 16 15 85 15 69 0 85 -3 85 -15z m-2 -62 c-3 -15
-15 -18 -83 -18 -68 0 -80 3 -83 18 -3 15 6 17 83 17 77 0 86 -2 83 -17z"/>
<path d="M3560 2030 l0 -90 -90 0 c-73 0 -90 -3 -90 -15 0 -12 13 -15 56 -15
66 0 66 2 -6 -105 -27 -41 -50 -77 -50 -80 0 -3 15 -5 33 -5 29 0 37 8 95 95
55 85 65 95 92 95 l30 0 0 -79 c0 -102 10 -111 122 -111 65 0 76 2 72 15 -4
10 -21 15 -54 15 -78 0 -80 2 -80 86 l0 74 65 0 c51 0 65 3 65 15 0 12 -18 15
-100 15 l-100 0 0 90 0 90 -30 0 -30 0 0 -90z"/>
<path d="M3390 2085 c0 -3 17 -31 38 -63 32 -49 41 -57 70 -58 17 0 32 0 32 2
0 1 -16 30 -36 63 -33 55 -39 61 -70 61 -19 0 -34 -2 -34 -5z"/>
<path d="M3695 2034 c-20 -31 -35 -58 -33 -59 2 -2 16 -6 31 -9 27 -5 38 7
101 112 5 9 -3 12 -28 12 -32 0 -39 -5 -71 -56z"/>
<path d="M2610 2046 c0 -8 17 -16 46 -20 66 -9 74 -8 74 8 0 8 -17 16 -46 20
-66 9 -74 8 -74 -8z"/>
<path d="M2610 1956 c0 -8 13 -17 30 -20 17 -3 44 -9 60 -12 23 -4 30 -2 30
10 0 15 -10 19 -82 31 -30 5 -38 3 -38 -9z"/>
<path d="M787 1750 c-64 -11 -122 -50 -147 -100 -29 -58 -28 -180 3 -240 33
-67 83 -88 222 -96 159 -8 185 -22 185 -98 0 -22 -9 -45 -24 -63 l-24 -28
-215 -3 -216 -3 41 -65 41 -66 211 4 c207 3 212 3 256 30 61 35 91 91 98 177
6 87 -11 147 -53 187 -43 40 -100 54 -219 54 -52 0 -106 4 -120 10 -39 14 -52
51 -37 100 20 68 39 74 247 80 l181 5 -39 63 -40 62 -151 -1 c-84 -1 -174 -5
-200 -9z"/>
<path d="M2121 1628 c-58 -10 -136 -55 -167 -96 -97 -126 -56 -333 79 -405 35
-18 64 -23 172 -27 127 -5 130 -6 133 -28 2 -13 -2 -38 -9 -54 -20 -49 -57
-58 -244 -58 -91 0 -165 -3 -165 -7 1 -5 16 -33 34 -63 l32 -55 165 -3 c214
-4 271 16 322 111 21 41 22 50 22 367 l0 325 -167 0 c-91 0 -185 -3 -207 -7z
m219 -318 c0 -110 -2 -200 -4 -200 -2 0 -18 25 -35 55 l-31 55 -50 0 c-61 0
-106 18 -140 55 -21 22 -25 37 -25 85 0 108 56 150 198 150 l87 0 0 -200z"/>
<path d="M2745 1631 c-94 -17 -141 -66 -156 -164 -5 -34 -9 -155 -9 -269 l0
-208 229 0 c235 0 269 5 325 43 59 42 66 75 66 355 l0 252 -207 -1 c-115 -1
-226 -5 -248 -8z m295 -301 c0 -219 8 -210 -173 -210 l-128 0 3 171 c4 218 -3
209 174 209 l124 0 0 -170z"/>
<path d="M3288 1634 c-5 -4 -8 -151 -8 -326 l0 -318 80 0 80 0 0 255 0 255 93
0 c142 0 137 10 137 -278 l0 -232 80 0 81 0 -3 258 c-3 238 -5 260 -24 297
-15 28 -35 47 -70 65 -46 24 -58 25 -244 28 -107 2 -198 0 -202 -4z"/>
<path d="M1290 1378 c0 -234 1 -255 21 -294 15 -33 32 -49 72 -68 49 -25 57
-26 249 -26 l198 0 0 320 0 320 -75 0 -75 0 0 -250 0 -250 -98 0 c-140 0 -132
-16 -132 268 l0 232 -80 0 -80 0 0 -252z"/>
</g>
</svg>
